<svg width="350" height="200" viewBox="0 0 350 200" fill="none" xmlns="http://www.w3.org/2000/svg">
<g clip-path="url(#clip0_5104_3064)">
<rect width="350" height="200" fill="transparent"/>
<rect width="350" height="59" rx="5" fill="#717D96"/>
<rect y="66" width="69" height="40" rx="5" fill="#717D96"/>
<rect y="113" width="69" height="40" rx="5" fill="#717D96"/>
<rect y="160" width="69" height="40" rx="5" fill="#717D96"/>
<rect x="76" y="66" width="87" height="40" rx="5" fill="#A0ABC0"/>
<rect x="76" y="113" width="87" height="40" rx="5" fill="#A0ABC0"/>
<rect x="76" y="160" width="87" height="40" rx="5" fill="#A0ABC0"/>
<rect x="169" y="66" width="87" height="40" rx="5" fill="#A0ABC0"/>
<rect x="169" y="113" width="87" height="40" rx="5" fill="#A0ABC0"/>
<rect x="169" y="160" width="87" height="40" rx="5" fill="#A0ABC0"/>
<rect x="263" y="66" width="87" height="40" rx="5" fill="#A0ABC0"/>
<rect x="263" y="113" width="87" height="40" rx="5" fill="#A0ABC0"/>
<rect x="263" y="160" width="87" height="40" rx="5" fill="#A0ABC0"/>
<path d="M43.2673 26.4823H39.1087C39.1087 22.9768 35.7406 20.1586 31.6165 20.1586C27.4923 20.1586 24.1242 23.0111 24.1242 26.4823H20C20 20.7085 25.224 16 31.6165 16C38.0433 16 43.2673 20.7085 43.2673 26.4823Z" fill="#FAFAFA"/>
<path d="M62.3689 26.4823H58.2103C58.2103 22.9768 54.8422 20.1586 50.718 20.1586C46.5938 20.1586 43.2257 23.0111 43.2257 26.4823H39.1016C39.1016 20.7085 44.3255 16 50.718 16C57.1449 16 62.3689 20.7085 62.3689 26.4823Z" fill="#FAFAFA"/>
<path d="M50.718 42.9979C44.2912 42.9979 39.1016 38.2895 39.1016 32.5156H43.2601C43.2601 36.0212 46.6282 38.8394 50.7524 38.8394C54.8766 38.8394 58.2447 35.9868 58.2447 32.5156H62.4032C62.3689 38.3239 57.1449 42.9979 50.718 42.9979Z" fill="#FAFAFA"/>
<path d="M31.6165 43.0004C25.1896 43.0004 20 38.2919 20 32.5181H24.1586C24.1586 36.0236 27.5266 38.8418 31.6508 38.8418C35.775 38.8418 39.1431 35.9893 39.1431 32.5181H43.3017C43.2673 38.3263 38.0433 43.0004 31.6165 43.0004Z" fill="#FAFAFA"/>
<path d="M43.1746 27.8853H38.8828V31.0784H43.1746V27.8853Z" fill="#FAFAFA"/>
</g>
<defs>
<clipPath id="clip0_5104_3064">
<rect width="350" height="200" fill="white"/>
</clipPath>
</defs>
</svg>
