<svg width="350" height="200" viewBox="0 0 350 200" fill="none" xmlns="http://www.w3.org/2000/svg">
<g clip-path="url(#clip0_5481_1065)">
<rect width="350" height="200" fill="transparent"/>

<rect y="150" width="80" height="50" rx="5" fill="#717D96"/>
<rect x="90" y="104" width="80" height="96" rx="5" fill="#717D96"/>
<rect x="180" y="42" width="80" height="158" rx="5" fill="#717D96"/>
<rect x="270" width="80" height="200" rx="5" fill="#717D96"/>
<path d="M312.267 26.4823H308.109C308.109 22.9768 304.741 20.1586 300.616 20.1586C296.492 20.1586 293.124 23.0111 293.124 26.4823H289C289 20.7085 294.224 16 300.616 16C307.043 16 312.267 20.7085 312.267 26.4823Z" fill="#FAFAFA"/>
<path d="M331.369 26.4823H327.21C327.21 22.9768 323.842 20.1586 319.718 20.1586C315.594 20.1586 312.226 23.0111 312.226 26.4823H308.102C308.102 20.7085 313.326 16 319.718 16C326.145 16 331.369 20.7085 331.369 26.4823Z" fill="#FAFAFA"/>
<path d="M319.718 42.9979C313.291 42.9979 308.102 38.2895 308.102 32.5156H312.26C312.26 36.0212 315.628 38.8394 319.752 38.8394C323.877 38.8394 327.245 35.9868 327.245 32.5156H331.403C331.369 38.3239 326.145 42.9979 319.718 42.9979Z" fill="#FAFAFA"/>
<path d="M300.616 43.0004C294.19 43.0004 289 38.2919 289 32.5181H293.159C293.159 36.0236 296.527 38.8418 300.651 38.8418C304.775 38.8418 308.143 35.9893 308.143 32.5181H312.302C312.267 38.3263 307.043 43.0004 300.616 43.0004Z" fill="#FAFAFA"/>
<path d="M312.175 27.8853H307.883V31.0784H312.175V27.8853Z" fill="#FAFAFA"/>
</g>
<defs>
<clipPath id="clip0_5481_1065">
<rect width="350" height="200" fill="white"/>
</clipPath>
</defs>
</svg>
